<svg width="128" height="128" viewBox="0 0 128 128" fill="none" xmlns="http://www.w3.org/2000/svg">
<path d="M105.812 59.2581C112.863 72.4202 107.059 108.338 58.1863 108.338C21.7015 108.338 6.36755 64.0697 6 62.6329C6.60145 63.7021 26.2806 98.0978 59.841 98.0978C99.1485 98.0978 99.9838 70.2832 94.2207 59.4252C88.4576 48.5498 77.2814 40.5654 59.7741 44.7087C59.5911 44.7595 59.4066 44.7915 59.2395 44.8423C60.4424 44.7086 61.6787 44.6418 62.931 44.6418C77.0795 44.6418 88.6072 53.1274 88.9907 63.7021C90.9781 72.3722 85.7496 84.4999 69.7968 88.2916C46.9114 93.7206 27.9339 83.2796 20.4158 69.0803C12.8818 54.8809 17.6933 20 64.9024 20C107.968 20 121.515 64.2687 121.883 65.7055C121.265 64.6362 101.201 30.2231 66.3712 30.2231C27.0637 30.2231 26.2283 58.0378 31.9914 68.9117C36.5357 77.4976 44.4533 83.2288 56.18 83.2288C45.0373 80.99 36.835 73.3558 36.835 64.2687C36.3178 53.2596 41.5797 43.5711 56.4299 40.0467C79.3008 34.6192 98.2216 45.0893 105.812 59.2581Z" fill="#F8FAFC"/>
</svg>
