<svg width="128" height="128" viewBox="0 0 128 128" fill="none" xmlns="http://www.w3.org/2000/svg">
<path d="M38.1719 39.2281C34.9106 42.4893 34.9106 47.8411 38.1719 51.1024C41.4331 54.3636 46.7849 54.3636 50.0462 51.1024C53.3074 47.8411 53.3074 42.4893 50.0462 39.2281C46.7849 35.8832 41.5167 35.8832 38.1719 39.2281ZM47.9556 48.9282C45.8651 51.0188 42.5202 51.0188 40.4296 48.9282C38.3391 46.8377 38.3391 43.4928 40.4296 41.4022C42.5202 39.3117 45.8651 39.3117 47.9556 41.4022C50.0462 43.4092 50.0462 46.8377 47.9556 48.9282ZM47.0358 27.521C41.3495 21.8347 16.9319 6.61558 11.2456 12.2182C5.55936 17.9045 20.8621 42.3221 26.5484 48.0084L68.9447 90.4046L89.432 69.9173L47.0358 27.521ZM51.1332 52.1058C47.2866 55.9524 41.015 55.9524 37.0848 52.1058C33.2382 48.2592 33.2382 41.9876 37.0848 38.0574C40.9314 34.2108 47.203 34.2108 51.1332 38.0574C55.0635 41.9876 55.0635 48.2592 51.1332 52.1058Z" fill="#F8FAFC"/>
<path d="M47.3704 71.0044C47.3704 71.0044 43.5238 80.7046 49.9627 92.1608C56.736 104.202 73.7949 118 73.7949 118L72.2061 95.8401L47.3704 71.0044ZM117.027 74.7674C117.027 74.7674 103.23 57.7922 91.1882 51.0188C79.732 44.58 70.0319 48.4266 70.0319 48.4266L94.8676 73.2622L117.027 74.7674ZM81.9062 79.6175L77.5579 83.9658L93.7805 100.105C94.9512 101.276 96.8745 101.276 98.1288 100.105C99.2995 98.9341 99.2995 97.0108 98.1288 95.7565L81.9062 79.6175Z" fill="#F8FAFC"/>
</svg>
