<svg width="128" height="128" viewBox="0 0 128 128" fill="none" xmlns="http://www.w3.org/2000/svg">
<path d="M76.8251 16.7725C80.8014 19.4602 84.2691 22.8156 87.0803 26.6635C92.7699 34.4516 95.7726 44.2536 94.8664 54.6139C93.8732 65.9703 88.3686 75.8511 80.2719 82.6456C72.1781 89.4374 61.4894 93.1414 50.1246 92.1473C39.7729 91.2419 30.6462 86.5844 23.965 79.6302C20.6608 76.1909 17.9568 72.1885 16 67.7998C16.9532 77.6606 20.9208 86.7525 27.0381 94.0427C34.9513 103.473 46.4648 109.885 59.7023 111.042C72.9316 112.199 85.3811 107.882 94.8145 99.9664C104.245 92.0531 110.656 80.5397 111.814 67.302C112.971 54.0726 108.654 41.6232 100.738 32.1899C94.6266 24.9067 86.3673 19.4249 76.8251 16.7725Z" fill="#F8FAFC"/>
</svg>
