<svg width="128" height="128" viewBox="0 0 128 128" fill="none" xmlns="http://www.w3.org/2000/svg">
<path d="M63.9994 117.333C56.6216 117.333 49.6882 115.932 43.1994 113.13C36.7105 110.329 31.066 106.53 26.266 101.733C21.466 96.9367 17.6669 91.2923 14.8687 84.7998C12.0705 78.3074 10.6696 71.3741 10.666 63.9998C10.6625 56.6256 12.0634 49.6923 14.8687 43.1998C17.674 36.7074 21.4731 31.0629 26.266 26.2665C31.0589 21.4701 36.7034 17.6709 43.1994 14.8692C49.6954 12.0674 56.6287 10.6665 63.9994 10.6665C71.37 10.6665 78.3034 12.0674 84.7994 14.8692C91.2954 17.6709 96.9398 21.4701 101.733 26.2665C106.526 31.0629 110.326 36.7074 113.135 43.1998C115.944 49.6923 117.343 56.6256 117.333 63.9998C117.322 71.3741 115.921 78.3074 113.13 84.7998C110.339 91.2923 106.54 96.9367 101.733 101.733C96.9256 106.53 91.2811 110.33 84.7994 113.136C78.3176 115.941 71.3842 117.34 63.9994 117.333ZM63.9994 106.666C75.9105 106.666 85.9994 102.533 94.266 94.2665C102.533 85.9998 106.666 75.9109 106.666 63.9998C106.666 52.0887 102.533 41.9998 94.266 33.7332C85.9994 25.4665 75.9105 21.3332 63.9994 21.3332C52.0882 21.3332 41.9994 25.4665 33.7327 33.7332C25.466 41.9998 21.3327 52.0887 21.3327 63.9998C21.3327 75.9109 25.466 85.9998 33.7327 94.2665C41.9994 102.533 52.0882 106.666 63.9994 106.666Z" fill="#F8FAFC"/>
</svg>
