<svg width="128" height="128" viewBox="0 0 128 128" fill="none" xmlns="http://www.w3.org/2000/svg">
<path d="M64.493 88.612C58.0277 88.612 51.8272 86.0437 47.2556 81.472C42.6839 76.9003 40.1156 70.6999 40.1156 64.2346C40.1156 63.7372 39.918 63.2603 39.5664 62.9086C39.2147 62.5569 38.7378 62.3594 38.2404 62.3594C37.7431 62.3594 37.2661 62.5569 36.9145 62.9086C36.5628 63.2603 36.3652 63.7372 36.3652 64.2346C36.3652 71.6945 39.3287 78.8489 44.6037 84.1239C49.8787 89.3989 57.0331 92.3624 64.493 92.3624C64.9904 92.3624 65.4673 92.1648 65.819 91.8131C66.1707 91.4615 66.3682 90.9845 66.3682 90.4872C66.3682 89.9898 66.1707 89.5129 65.819 89.1612C65.4673 88.8095 64.9904 88.612 64.493 88.612Z" fill="#F8FAFC"/>
<path d="M64.4924 36.1064C63.995 36.1064 63.5181 36.304 63.1664 36.6557C62.8147 37.0073 62.6172 37.4843 62.6172 37.9816C62.6172 38.479 62.8147 38.9559 63.1664 39.3076C63.5181 39.6593 63.995 39.8568 64.4924 39.8568C70.9577 39.8568 77.1582 42.4251 81.7298 46.9968C86.3015 51.5685 88.8698 57.7689 88.8698 64.2342C88.8698 64.7316 89.0674 65.2085 89.419 65.5602C89.7707 65.9119 90.2477 66.1094 90.745 66.1094C91.2423 66.1094 91.7193 65.9119 92.0709 65.5602C92.4226 65.2085 92.6202 64.7316 92.6202 64.2342C92.6202 56.7743 89.6567 49.6199 84.3817 44.3449C79.1067 39.0699 71.9523 36.1064 64.4924 36.1064Z" fill="#F8FAFC"/>
<path d="M116.211 62.7156C113.21 60.56 111.102 57.3812 110.283 53.7785C109.465 50.1757 109.992 46.3979 111.767 43.1574C111.908 42.8956 111.985 42.604 111.991 42.3067C111.997 42.0093 111.932 41.7148 111.802 41.4473C111.672 41.1799 111.481 40.9472 111.243 40.7685C111.005 40.5898 110.728 40.4702 110.435 40.4196C106.798 39.7832 103.519 37.8373 101.219 34.9492C98.9177 32.0611 97.7538 28.4306 97.9465 24.743C97.9575 24.4477 97.8986 24.154 97.7746 23.8858C97.6505 23.6176 97.4649 23.3825 97.2327 23.1997C97.0005 23.0169 96.7284 22.8916 96.4386 22.8339C96.1488 22.7762 95.8495 22.7878 95.565 22.8678C92.0092 23.8709 88.2094 23.5401 84.8803 21.9377C81.5513 20.3354 78.9224 17.5719 77.4882 14.167C77.375 13.8893 77.1968 13.6429 76.9686 13.4483C76.7405 13.2538 76.469 13.1168 76.1769 13.0488C75.8849 12.9808 75.5808 12.9839 75.2902 13.0577C74.9995 13.1316 74.7309 13.274 74.5067 13.4732C71.7547 15.9401 68.189 17.3044 64.4932 17.3044C60.7974 17.3044 57.2316 15.9401 54.4797 13.4732C54.2555 13.274 53.9868 13.1316 53.6962 13.0577C53.4056 12.9839 53.1015 12.9808 52.8094 13.0488C52.5174 13.1168 52.2459 13.2538 52.0177 13.4483C51.7896 13.6429 51.6114 13.8893 51.4981 14.167C50.0643 17.5678 47.4385 20.3283 44.1136 21.9304C40.7887 23.5324 36.9933 23.8657 33.4401 22.8678C33.1556 22.7878 32.8563 22.7762 32.5665 22.8339C32.2766 22.8916 32.0046 23.0169 31.7724 23.1997C31.5402 23.3825 31.3546 23.6176 31.2305 23.8858C31.1065 24.154 31.0476 24.4477 31.0586 24.743C31.2459 28.4302 30.0772 32.0583 27.773 34.9429C25.4688 37.8275 22.1885 39.7689 18.5511 40.4008C18.2554 40.4504 17.9758 40.5701 17.7359 40.75C17.496 40.9299 17.3028 41.1647 17.1724 41.4347C17.0419 41.7047 16.9782 42.002 16.9864 42.3018C16.9947 42.6015 17.0747 42.8949 17.2197 43.1574C18.9942 46.3979 19.5218 50.1757 18.7031 53.7785C17.8845 57.3812 15.7761 60.56 12.7755 62.7156C12.5354 62.8894 12.3399 63.1177 12.2051 63.3817C12.0703 63.6458 12 63.938 12 64.2345C12 64.5309 12.0703 64.8231 12.2051 65.0872C12.3399 65.3512 12.5354 65.5795 12.7755 65.7534C15.7761 67.9089 17.8845 71.0877 18.7031 74.6905C19.5218 78.2932 18.9942 82.071 17.2197 85.3116C17.0786 85.5733 17.0017 85.8649 16.9955 86.1622C16.9893 86.4596 17.0538 86.7541 17.1839 87.0216C17.314 87.289 17.5058 87.5217 17.7435 87.7004C17.9812 87.8791 18.258 87.9987 18.5511 88.0493C22.1884 88.6857 25.4669 90.6316 27.7678 93.5197C30.0686 96.4078 31.2325 100.038 31.0398 103.726C31.0288 104.021 31.0877 104.315 31.2118 104.583C31.3358 104.851 31.5215 105.086 31.7537 105.269C31.9858 105.452 32.2579 105.577 32.5477 105.635C32.8375 105.693 33.1369 105.681 33.4213 105.601C36.9772 104.598 40.777 104.929 44.106 106.531C47.4351 108.134 50.0639 110.897 51.4981 114.302C51.6114 114.58 51.7896 114.826 52.0177 115.021C52.2459 115.215 52.5174 115.352 52.8094 115.42C53.1015 115.488 53.4056 115.485 53.6962 115.411C53.9868 115.337 54.2555 115.195 54.4797 114.996C57.2316 112.529 60.7974 111.165 64.4932 111.165C68.189 111.165 71.7547 112.529 74.5067 114.996C74.7309 115.195 74.9995 115.337 75.2902 115.411C75.5808 115.485 75.8849 115.488 76.1769 115.42C76.469 115.352 76.7405 115.215 76.9686 115.021C77.1968 114.826 77.375 114.58 77.4882 114.302C78.9188 110.899 81.5441 108.135 84.8701 106.533C88.196 104.93 91.993 104.599 95.5463 105.601C95.8307 105.681 96.1301 105.693 96.4199 105.635C96.7097 105.577 96.9818 105.452 97.2139 105.269C97.4461 105.086 97.6318 104.851 97.7558 104.583C97.8799 104.315 97.9388 104.021 97.9277 103.726C97.7404 100.039 98.9091 96.4106 101.213 93.526C103.518 90.6414 106.798 88.7 110.435 88.0681C110.731 88.0185 111.011 87.8988 111.25 87.7189C111.49 87.539 111.684 87.3042 111.814 87.0342C111.944 86.7642 112.008 86.4669 112 86.1671C111.992 85.8674 111.912 85.574 111.767 85.3116C109.992 82.071 109.465 78.2932 110.283 74.6905C111.102 71.0877 113.21 67.9089 116.211 65.7534C116.451 65.5795 116.646 65.3512 116.781 65.0872C116.916 64.8231 116.986 64.5309 116.986 64.2345C116.986 63.938 116.916 63.6458 116.781 63.3817C116.646 63.1177 116.451 62.8894 116.211 62.7156ZM64.4932 96.1126C59.1334 96.1165 53.8592 94.7688 49.1582 92.1944C44.4572 89.6199 40.4813 85.9017 37.5979 81.3835C34.7146 76.8654 33.017 71.6932 32.6621 66.3452C32.3073 60.9972 33.3065 55.646 35.5676 50.7865C37.8286 45.927 41.2784 41.716 45.598 38.543C49.9176 35.3699 54.9675 33.3372 60.2808 32.6328C65.5941 31.9284 70.9992 32.575 75.9964 34.5129C80.9935 36.4508 85.4214 39.6174 88.8706 43.7199C106.235 64.2345 91.5521 96.1126 64.4932 96.1126Z" fill="#F8FAFC"/>
</svg>
