<svg width="128" height="128" viewBox="0 0 128 128" fill="none" xmlns="http://www.w3.org/2000/svg">
<path fill-rule="evenodd" clip-rule="evenodd" d="M26.0421 6L6 25.9514L40.0988 59.9595L60.1409 39.9174L26.0421 6ZM48.0794 34.0227L42.0939 40.0081L38.1036 36.0178L44.0891 30.0324L48.0794 34.0227ZM42.0939 27.9466L36.0178 34.0227L32.0275 30.0324L38.013 24.047L42.0939 27.9466ZM36.0178 21.9611L30.0324 27.9466L26.0421 23.9563L32.0275 17.9709L36.0178 21.9611ZM26.0421 11.9854L30.0324 15.9757L24.047 21.9611L20.0567 17.9709L26.0421 11.9854ZM11.9854 25.9514L17.9709 19.966L21.9611 23.9563L15.9757 29.9417L11.9854 25.9514ZM18.0615 31.9368L24.047 25.9514L28.0372 29.9417L22.0518 35.9271L18.0615 31.9368ZM24.047 38.013L30.0324 32.0275L34.0227 36.0178L28.0372 42.0032L24.047 38.013ZM30.0324 43.9984L36.0178 38.013L40.0081 42.0032L34.0227 47.9887L30.0324 43.9984ZM40.0988 53.9741L36.1085 49.9838L42.0939 43.9984L46.0842 47.9887L40.0988 53.9741ZM44.0891 42.0032L50.0745 36.0178L54.0648 40.0081L48.0794 45.9935L44.0891 42.0032Z" fill="#F8FAFC"/>
<path fill-rule="evenodd" clip-rule="evenodd" d="M88.0734 67.9395L68.0312 87.8909L102.13 121.899L122.172 101.857L88.0734 67.9395ZM110.111 95.9621L104.125 101.948L100.135 97.9573L106.12 91.9718L110.111 95.9621ZM104.034 89.886L98.0491 95.8714L94.0588 91.8812L100.044 85.8957L104.034 89.886ZM98.0491 83.9006L92.0636 89.886L88.0734 85.8957L94.0588 79.9103L98.0491 83.9006ZM88.0734 73.9249L92.0636 77.9152L86.0782 83.9006L82.0879 79.9103L88.0734 73.9249ZM74.0167 87.8909L80.0021 81.9054L83.9924 85.8957L78.007 91.8812L74.0167 87.8909ZM80.0021 93.967L85.9875 87.9816L89.9778 91.9718L83.9924 97.9573L80.0021 93.967ZM86.0782 99.9524L92.0636 93.967L96.0539 97.9573L90.0685 103.943L86.0782 99.9524ZM92.0636 105.938L98.0491 99.9524L102.039 103.943L96.0539 109.928L92.0636 105.938ZM102.039 115.914L98.0491 111.923L104.034 105.938L108.025 109.928L102.039 115.914ZM106.03 103.943L112.015 97.9573L116.005 101.948L110.02 107.933L106.03 103.943Z" fill="#F8FAFC"/>
<path d="M38.2841 64.4037C31.3011 71.3867 31.3011 82.7227 38.2841 89.7057C45.2671 96.6887 56.6032 96.6887 63.5862 89.7057L93.4226 59.8693L68.1206 34.5672L38.2841 64.4037ZM82.4493 45.5405C89.4323 52.5235 97.0501 56.0604 104.033 49.0774L78.9125 23.9567C71.8388 30.9397 75.4663 38.6482 82.4493 45.5405ZM90.6113 10.9883C90.6113 14.8879 90.6113 12.802 90.6113 16.7016C101.222 16.7016 109.837 25.317 109.837 35.9276H115.551C115.46 22.1429 104.305 10.9883 90.6113 10.9883ZM90.6113 22.415C90.6113 27.4935 90.6113 24.2288 90.6113 28.1284C94.9643 28.1284 98.4104 31.6652 98.4104 35.9276C102.763 35.9276 98.7732 35.9276 104.124 35.9276C104.124 28.4004 98.0477 22.415 90.6113 22.415Z" fill="#F8FAFC"/>
</svg>
