<svg width="128" height="128" viewBox="0 0 128 128" fill="none" xmlns="http://www.w3.org/2000/svg">
<path d="M111.128 37.096C111.128 37.096 91.5005 44.5816 92.1396 40.8388C91.957 30.4319 122.812 14 122.812 14C122.812 14 65.0269 20.5728 50.0556 42.6646C35.0843 64.8477 48.8688 33.2619 48.8688 33.2619C48.8688 33.2619 4.22875 54.8059 6.05452 87.1221C6.23709 90.8649 7.60642 95.0642 9.88863 98.9896C8.70188 96.1596 7.97157 92.9645 7.97157 89.5869C7.97157 76.35 18.6523 65.6693 31.8892 65.6693C45.126 65.6693 55.8067 76.35 55.8067 89.5869C55.8067 102.55 45.4911 113.048 32.7108 113.504C37.549 113.778 43.0264 112.865 48.8688 110.218C69.5 100.907 83.9236 75.6197 83.9236 75.6197C83.9236 75.6197 72.6038 80.6406 71.1432 77.2629C66.4875 66.4909 111.128 37.096 111.128 37.096Z" fill="#F8FAFC"/>
<path d="M31.8882 108.94C42.9799 108.94 51.9716 100.276 51.9716 89.587C51.9716 78.8986 42.9799 70.2339 31.8882 70.2339C20.7964 70.2339 11.8047 78.8986 11.8047 89.587C11.8047 100.276 20.7964 108.94 31.8882 108.94Z" fill="#F8FAFC"/>
</svg>
