<svg width="128" height="128" viewBox="0 0 128 128" fill="none" xmlns="http://www.w3.org/2000/svg">
<g clip-path="url(#clip0_46_1965)">
<path fill-rule="evenodd" clip-rule="evenodd" d="M108.223 60.4185C111.435 70.3794 110.598 81.1142 105.838 90.4373C101.075 99.7655 92.8713 106.754 82.907 109.983C68.3324 114.705 53.7388 111.031 43.0964 100.057C39.2293 96.0701 36.1204 91.3095 34.0149 86.1699C31.9646 81.1654 30.8389 75.7289 30.9865 70.3112C31.3306 57.6813 38.2867 47.8852 49.8695 42.7787C56.8831 39.6866 65.458 38.2589 72.0597 43.1115C74.2739 44.7389 75.978 46.9057 77.1063 49.4035C78.1943 51.812 78.7113 54.4621 78.6996 57.1006C78.6674 64.3292 74.7668 70.9959 68.2956 74.3115C66.4114 75.2769 64.0998 74.5283 63.1366 72.6435C62.174 70.7597 62.9214 68.4519 64.8037 67.4875C68.7181 65.4818 71.0135 61.4261 71.0328 57.0685C71.0397 55.5264 70.7466 53.9687 70.1102 52.5601C69.5273 51.2696 68.6646 50.1388 67.5194 49.297C63.3851 46.2581 57.2034 47.935 52.9642 49.804C44.1838 53.6751 38.9132 60.9113 38.6518 70.5059C38.5333 74.8593 39.4631 79.239 41.1098 83.2586C42.8456 87.4956 45.4111 91.4259 48.5991 94.7129C57.1765 103.557 68.8049 106.49 80.5529 102.683C88.5738 100.084 95.1634 94.4577 98.9962 86.9505C102.832 79.4375 103.511 70.7957 100.922 62.7679C100.271 60.7517 101.384 58.589 103.4 57.9417C105.415 57.295 107.574 58.405 108.223 60.4185ZM19.7784 67.5813C16.5661 57.6204 17.4036 46.8856 22.1635 37.5626C26.9261 28.2344 35.13 21.2455 45.0942 18.017C59.6689 13.2946 74.2623 16.9692 84.9048 27.9424C88.7721 31.9297 91.8809 36.6904 93.9864 41.83C96.0366 46.8345 97.1623 52.271 97.0148 57.6887C96.6707 70.3186 89.7146 80.1147 78.1318 85.2213C71.1182 88.3133 62.5432 89.741 55.9415 84.8884C53.7273 83.261 52.0232 81.0942 50.8949 78.5965C49.807 76.1879 49.2899 73.5379 49.3017 70.8994C49.3339 63.6707 53.2344 57.004 59.7057 53.6885C61.5899 52.7231 63.9015 53.4716 64.8646 55.3564C65.8272 57.2402 65.0799 59.5481 63.1976 60.5124C59.2832 62.5181 56.9878 66.5738 56.9684 70.9315C56.9616 72.4735 57.2547 74.0313 57.891 75.4398C58.474 76.7303 59.3366 77.8612 60.4819 78.703C64.6162 81.7418 70.7979 80.0649 75.037 78.1959C83.8175 74.3248 89.0881 67.0886 89.3494 57.494C89.468 53.1406 88.5382 48.7609 86.8914 44.7413C85.1557 40.5044 82.5902 36.574 79.4022 33.2869C70.8249 24.4432 59.1962 21.5101 47.4484 25.3166C39.4275 27.9154 32.8379 33.5423 29.005 41.0494C25.1693 48.5624 24.4907 57.2042 27.0797 65.2321C27.7299 67.2482 26.6174 69.411 24.6011 70.0582C22.5861 70.7049 20.4277 69.5948 19.7784 67.5813Z" fill="#F8FAFC"/>
<path d="M101 38C103.761 38 106 35.7614 106 33C106 30.2386 103.761 28 101 28C98.2386 28 96 30.2386 96 33C96 35.7614 98.2386 38 101 38Z" fill="#F8FAFC"/>
<path d="M26.5 100C28.9853 100 31 97.9853 31 95.5C31 93.0147 28.9853 91 26.5 91C24.0147 91 22 93.0147 22 95.5C22 97.9853 24.0147 100 26.5 100Z" fill="#F8FAFC"/>
<path d="M53.5 35C55.433 35 57 33.433 57 31.5C57 29.567 55.433 28 53.5 28C51.567 28 50 29.567 50 31.5C50 33.433 51.567 35 53.5 35Z" fill="#F8FAFC"/>
<path d="M24 25.4995C25.933 25.4995 27.5 23.9325 27.5 21.9995C27.5 20.0665 25.933 18.4995 24 18.4995C22.067 18.4995 20.5 20.0665 20.5 21.9995C20.5 23.9325 22.067 25.4995 24 25.4995Z" fill="#F8FAFC"/>
<path d="M77.5 99.5C79.433 99.5 81 97.933 81 96C81 94.067 79.433 92.5 77.5 92.5C75.567 92.5 74 94.067 74 96C74 97.933 75.567 99.5 77.5 99.5Z" fill="#F8FAFC"/>
<path d="M83.4384 55.123C84.8531 55.123 85.9999 53.9761 85.9999 52.5615C85.9999 51.1468 84.8531 50 83.4384 50C82.0238 50 80.877 51.1468 80.877 52.5615C80.877 53.9761 82.0238 55.123 83.4384 55.123Z" fill="#F8FAFC"/>
</g>
<defs>
<clipPath id="clip0_46_1965">
<rect width="128" height="128" fill="white"/>
</clipPath>
</defs>
</svg>
