<svg width="128" height="128" viewBox="0 0 128 128" fill="none" xmlns="http://www.w3.org/2000/svg">
<path d="M80.12 78.1176C80.3524 77.8051 80.5068 77.4416 80.5703 77.0574C80.6338 76.6731 80.6045 76.2793 80.485 75.9086C80.3654 75.538 80.159 75.2013 79.883 74.9266C79.6069 74.6519 79.2692 74.4471 78.898 74.3294L61.0078 68.8303L50.2541 53.5307C50.0281 53.2129 49.7294 52.9538 49.3829 52.775C49.0364 52.5962 48.6521 52.5029 48.2622 52.5029C47.8723 52.5029 47.488 52.5962 47.1415 52.775C46.795 52.9538 46.4962 53.2129 46.2703 53.5307L35.5166 68.8303C16.1844 74.7693 16.5266 74.2805 15.9644 75.8935C15.4023 77.5066 15.3779 76.8223 27.5735 93.0017C27.2558 113.263 26.8892 112.701 28.2823 113.727C29.6754 114.753 28.6245 114.705 48.2011 107.984L65.8958 114.069C66.2754 114.203 66.682 114.24 67.0796 114.179C67.4772 114.117 67.8534 113.959 68.175 113.717C68.4966 113.475 68.7535 113.158 68.9229 112.793C69.0924 112.428 69.1691 112.027 69.1464 111.625L68.8775 93.075L80.12 78.1176Z" fill="#F8FAFC"/>
<path d="M11.444 55.5588C12.0922 55.5588 12.7139 55.8163 13.1722 56.2746C13.6305 56.733 13.888 57.3546 13.888 58.0028C13.888 58.651 14.1455 59.2727 14.6039 59.731C15.0622 60.1894 15.6839 60.4468 16.3321 60.4468C16.9803 60.4468 17.6019 60.1894 18.0602 59.731C18.5186 59.2727 18.7761 58.651 18.7761 58.0028C18.7761 57.3546 19.0336 56.733 19.4919 56.2746C19.9503 55.8163 20.5719 55.5588 21.2201 55.5588C21.8683 55.5588 22.4899 55.3013 22.9483 54.843C23.4066 54.3846 23.6641 53.763 23.6641 53.1148C23.6641 52.4666 23.4066 51.8449 22.9483 51.3866C22.4899 50.9283 21.8683 50.6708 21.2201 50.6708C20.5719 50.6708 19.9503 50.4133 19.4919 49.9549C19.0336 49.4966 18.7761 48.8749 18.7761 48.2267C18.7761 47.5785 18.5186 46.9569 18.0602 46.4986C17.6019 46.0402 16.9803 45.7827 16.3321 45.7827C15.6839 45.7827 15.0622 46.0402 14.6039 46.4986C14.1455 46.9569 13.888 47.5785 13.888 48.2267C13.888 48.8749 13.6305 49.4966 13.1722 49.9549C12.7139 50.4133 12.0922 50.6708 11.444 50.6708C10.7958 50.6708 10.1742 50.9283 9.71584 51.3866C9.25749 51.8449 9 52.4666 9 53.1148C9 53.763 9.25749 54.3846 9.71584 54.843C10.1742 55.3013 10.7958 55.5588 11.444 55.5588Z" fill="#F8FAFC"/>
<path d="M69.452 62.1338L111 18.1414C111.448 17.6682 111.689 17.0367 111.67 16.3859C111.652 15.735 111.376 15.1181 110.903 14.6709C110.429 14.2236 109.798 13.9826 109.147 14.001C108.496 14.0193 107.879 14.2954 107.432 14.7686L65.8838 58.761C65.4365 59.2342 65.1955 59.8657 65.2139 60.5165C65.2322 61.1674 65.5083 61.7843 65.9815 62.2315C66.4547 62.6788 67.0862 62.9197 67.737 62.9014C68.3879 62.8831 69.0048 62.6069 69.452 62.1338Z" fill="#F8FAFC"/>
<path d="M114.803 36.7153L92.8067 58.7115C92.5788 58.9394 92.398 59.21 92.2747 59.5077C92.1514 59.8054 92.0879 60.1245 92.0879 60.4468C92.0879 60.7691 92.1514 61.0882 92.2747 61.3859C92.398 61.6836 92.5788 61.9542 92.8067 62.1821C93.0345 62.4099 93.3051 62.5907 93.6028 62.714C93.9005 62.8373 94.2196 62.9008 94.5419 62.9008C94.8642 62.9008 95.1833 62.8373 95.481 62.714C95.7788 62.5907 96.0493 62.4099 96.2772 62.1821L118.273 40.1859C118.501 39.958 118.682 39.6875 118.805 39.3897C118.929 39.092 118.992 38.7729 118.992 38.4506C118.992 38.1283 118.929 37.8092 118.805 37.5115C118.682 37.2138 118.501 36.9432 118.273 36.7153C118.045 36.4875 117.775 36.3067 117.477 36.1834C117.179 36.0601 116.86 35.9966 116.538 35.9966C116.216 35.9966 115.897 36.0601 115.599 36.1834C115.301 36.3067 115.031 36.4875 114.803 36.7153Z" fill="#F8FAFC"/>
<path d="M87.9187 63.5996L85.4746 66.0436C85.2468 66.2715 85.066 66.5421 84.9427 66.8398C84.8193 67.1375 84.7559 67.4566 84.7559 67.7789C84.7559 68.1012 84.8193 68.4203 84.9427 68.718C85.066 69.0158 85.2468 69.2863 85.4746 69.5142C85.7025 69.742 85.973 69.9228 86.2708 70.0461C86.5685 70.1694 86.8876 70.2329 87.2099 70.2329C87.5322 70.2329 87.8513 70.1694 88.149 70.0461C88.4467 69.9228 88.7173 69.742 88.9451 69.5142L91.3892 67.0701C91.8494 66.6099 92.1079 65.9857 92.1079 65.3349C92.1079 64.684 91.8494 64.0598 91.3892 63.5996C90.9289 63.1394 90.3048 62.8809 89.6539 62.8809C89.0031 62.8809 88.3789 63.1394 87.9187 63.5996Z" fill="#F8FAFC"/>
<path d="M60.3391 49.4482C61.8055 49.4482 61.6589 49.1305 70.6284 40.1854C71.0886 39.7251 71.3472 39.101 71.3472 38.4501C71.3472 37.7993 71.0886 37.1751 70.6284 36.7149C70.1682 36.2546 69.544 35.9961 68.8932 35.9961C68.2423 35.9961 67.6181 36.2546 67.1579 36.7149L58.6038 45.2689C58.2592 45.6108 58.0241 46.0475 57.9286 46.5235C57.8331 46.9995 57.8815 47.4931 58.0677 47.9414C58.2538 48.3898 58.5693 48.7725 58.9738 49.0409C59.3784 49.3092 59.8537 49.451 60.3391 49.4482Z" fill="#F8FAFC"/>
<path d="M100.65 84.8871V82.443C100.65 81.7949 100.392 81.1732 99.9339 80.7149C99.4756 80.2565 98.8539 79.999 98.2057 79.999C97.5575 79.999 96.9359 80.2565 96.4776 80.7149C96.0192 81.1732 95.7617 81.7949 95.7617 82.443V84.8871C95.7617 85.5353 96.0192 86.1569 96.4776 86.6153C96.9359 87.0736 97.5575 87.3311 98.2057 87.3311C98.8539 87.3311 99.4756 87.0736 99.9339 86.6153C100.392 86.1569 100.65 85.5353 100.65 84.8871Z" fill="#F8FAFC"/>
<path d="M103.094 92.2191H105.538C106.187 92.2191 106.808 91.9616 107.267 91.5033C107.725 91.0449 107.982 90.4233 107.982 89.7751C107.982 89.1269 107.725 88.5052 107.267 88.0469C106.808 87.5885 106.187 87.3311 105.538 87.3311H103.094C102.446 87.3311 101.825 87.5885 101.366 88.0469C100.908 88.5052 100.65 89.1269 100.65 89.7751C100.65 90.4233 100.908 91.0449 101.366 91.5033C101.825 91.9616 102.446 92.2191 103.094 92.2191Z" fill="#F8FAFC"/>
<path d="M90.8737 92.2191H93.3177C93.9659 92.2191 94.5876 91.9616 95.0459 91.5033C95.5043 91.0449 95.7618 90.4233 95.7618 89.7751C95.7618 89.1269 95.5043 88.5052 95.0459 88.0469C94.5876 87.5885 93.9659 87.3311 93.3177 87.3311H90.8737C90.2255 87.3311 89.6039 87.5885 89.1455 88.0469C88.6872 88.5052 88.4297 89.1269 88.4297 89.7751C88.4297 90.4233 88.6872 91.0449 89.1455 91.5033C89.6039 91.9616 90.2255 92.2191 90.8737 92.2191Z" fill="#F8FAFC"/>
<path d="M100.65 97.1073V94.6633C100.65 94.0151 100.392 93.3934 99.9339 92.9351C99.4756 92.4767 98.8539 92.2192 98.2057 92.2192C97.5575 92.2192 96.9359 92.4767 96.4776 92.9351C96.0192 93.3934 95.7617 94.0151 95.7617 94.6633V97.1073C95.7617 97.7555 96.0192 98.3771 96.4776 98.8355C96.9359 99.2938 97.5575 99.5513 98.2057 99.5513C98.8539 99.5513 99.4756 99.2938 99.9339 98.8355C100.392 98.3771 100.65 97.7555 100.65 97.1073Z" fill="#F8FAFC"/>
</svg>
