<svg width="128" height="128" viewBox="0 0 128 128" fill="none" xmlns="http://www.w3.org/2000/svg">
<path d="M40.5453 64.333C40.5453 65.681 40.0886 66.8117 39.1751 67.7251C38.2617 68.6386 37.1325 69.0937 35.7877 69.0906H16.7576C15.4096 69.0906 14.2805 68.6338 13.3702 67.7204C12.4599 66.8069 12.0032 65.6778 12 64.333C11.9968 62.9882 12.4536 61.8591 13.3702 60.9456C14.2868 60.0322 15.4159 59.5755 16.7576 59.5755H35.7877C37.1357 59.5755 38.2664 60.0322 39.1799 60.9456C40.0933 61.8591 40.5485 62.9882 40.5453 64.333ZM47.4437 47.4437C46.5715 48.3159 45.4614 48.752 44.1134 48.752C42.7655 48.752 41.6554 48.3159 40.7832 47.4437L37.4529 44.1134C36.5807 43.2412 36.1446 42.1311 36.1446 40.7832C36.1446 39.4352 36.5807 38.3251 37.4529 37.4529C38.3251 36.5807 39.4352 36.1446 40.7832 36.1446C42.1311 36.1446 43.2412 36.5807 44.1134 37.4529L47.4437 40.7832C48.3159 41.6554 48.752 42.7655 48.752 44.1134C48.752 45.4614 48.3159 46.5715 47.4437 47.4437ZM59.5755 35.7877V16.7576C59.5755 15.4096 60.0322 14.2805 60.9456 13.3702C61.8591 12.4599 62.9882 12.0032 64.333 12C65.6778 11.9968 66.8085 12.4536 67.7251 13.3702C68.6418 14.2868 69.0969 15.4159 69.0906 16.7576V35.7877C69.0906 37.1357 68.6338 38.2664 67.7204 39.1799C66.8069 40.0933 65.6778 40.5485 64.333 40.5453C62.9882 40.5421 61.8591 40.0854 60.9456 39.1751C60.0322 38.2648 59.5755 37.1357 59.5755 35.7877ZM81.2223 47.4437C80.3501 46.5715 79.914 45.4614 79.914 44.1134C79.914 42.7655 80.3501 41.6554 81.2223 40.7832L84.5526 37.4529C85.4248 36.5807 86.5349 36.1446 87.8829 36.1446C89.2308 36.1446 90.3409 36.5807 91.2131 37.4529C92.0853 38.3251 92.5215 39.4352 92.5215 40.7832C92.5215 42.1311 92.0853 43.2412 91.2131 44.1134L87.8829 47.4437C87.0106 48.3159 85.9005 48.752 84.5526 48.752C83.2046 48.752 82.0945 48.3159 81.2223 47.4437ZM88.1207 64.333C88.1207 62.985 88.5775 61.8559 89.4909 60.9456C90.4044 60.0354 91.5335 59.5786 92.8783 59.5755H111.908C113.256 59.5755 114.387 60.0322 115.301 60.9456C116.214 61.8591 116.669 62.9882 116.666 64.333C116.663 65.6778 116.206 66.8085 115.296 67.7251C114.386 68.6418 113.256 69.0969 111.908 69.0906H92.8783C91.5303 69.0906 90.4012 68.6338 89.4909 67.7204C88.5806 66.8069 88.1239 65.6778 88.1207 64.333ZM64.333 78.6056C60.3684 78.6056 56.9985 77.218 54.2232 74.4428C51.448 71.6676 50.0604 68.2976 50.0604 64.333C50.0604 60.3684 51.448 56.9985 54.2232 54.2232C56.9985 51.448 60.3684 50.0604 64.333 50.0604C68.2976 50.0604 71.6676 51.448 74.4428 54.2232C77.218 56.9985 78.6056 60.3684 78.6056 64.333C78.6056 68.2976 77.218 71.6676 74.4428 74.4428C71.6676 77.218 68.2976 78.6056 64.333 78.6056ZM81.2223 81.2223C82.0945 80.3501 83.2046 79.914 84.5526 79.914C85.9005 79.914 87.0106 80.3501 87.8829 81.2223L91.2131 84.5526C92.0853 85.4248 92.5215 86.5349 92.5215 87.8829C92.5215 89.2308 92.0853 90.3409 91.2131 91.2131C90.3409 92.0853 89.2308 92.5215 87.8829 92.5215C86.5349 92.5215 85.4248 92.0853 84.5526 91.2131L81.2223 87.8829C80.3501 87.0106 79.914 85.9005 79.914 84.5526C79.914 83.2046 80.3501 82.0945 81.2223 81.2223ZM47.4437 81.2223C48.3159 82.0945 48.752 83.2046 48.752 84.5526C48.752 85.9005 48.3159 87.0106 47.4437 87.8829L44.1134 91.2131C43.2412 92.0853 42.1311 92.5215 40.7832 92.5215C39.4352 92.5215 38.3251 92.0853 37.4529 91.2131C36.5807 90.3409 36.1446 89.2308 36.1446 87.8829C36.1446 86.5349 36.5807 85.4248 37.4529 84.5526L40.7832 81.2223C41.6554 80.3501 42.7655 79.914 44.1134 79.914C45.4614 79.914 46.5715 80.3501 47.4437 81.2223ZM64.333 88.1207C65.681 88.1207 66.8117 88.5775 67.7251 89.4909C68.6386 90.4044 69.0937 91.5335 69.0906 92.8783V111.908C69.0906 113.256 68.6338 114.387 67.7204 115.301C66.8069 116.214 65.6778 116.669 64.333 116.666C62.9882 116.663 61.8591 116.206 60.9456 115.296C60.0322 114.386 59.5755 113.256 59.5755 111.908V92.8783C59.5755 91.5303 60.0322 90.4012 60.9456 89.4909C61.8591 88.5806 62.9882 88.1239 64.333 88.1207Z" fill="#F8FAFC"/>
</svg>
