<svg width="128" height="128" viewBox="0 0 128 128" fill="none" xmlns="http://www.w3.org/2000/svg">
<g clip-path="url(#clip0_46_1985)">
<path d="M70.4004 67.5199L75.9764 87.9999L81.5524 67.5199C82.9524 62.3759 83.6564 59.7999 85.0324 57.6799C86.2462 55.8182 87.8347 54.2298 89.6964 53.0159C91.8004 51.6399 94.3764 50.9439 99.5364 49.5359L120.016 43.9599L99.5364 38.3839C94.3924 36.9839 91.8244 36.2799 89.6964 34.9039C87.8347 33.6901 86.2462 32.1016 85.0324 30.2399C83.6564 28.1359 82.9604 25.5599 81.5524 20.3999L75.9764 -0.0800781L70.4004 20.3999C69.0004 25.5439 68.2964 28.1199 66.9204 30.2399C65.7065 32.1016 64.1181 33.6901 62.2564 34.9039C60.1524 36.2799 57.5764 36.9759 52.4164 38.3839L31.9364 43.9599L52.4164 49.5359C57.5604 50.9359 60.1364 51.6399 62.2564 53.0159C64.1181 54.2298 65.7065 55.8182 66.9204 57.6799C68.2964 59.7839 68.9924 62.3599 70.4004 67.5199ZM21.4404 109.6C22.7924 111.552 23.5524 113.936 25.0884 118.72L27.9844 127.68L30.8804 118.72C32.4084 113.96 33.1764 111.576 34.5284 109.6C35.7204 107.872 37.2484 106.4 39.0164 105.256C41.0084 103.968 43.4164 103.28 48.2164 101.912L55.9844 99.6959L48.2164 97.4799C43.4084 96.1039 41.0004 95.4159 39.0164 94.1359C37.2495 92.9968 35.7245 91.5207 34.5284 89.7919C33.1764 87.8399 32.4164 85.4559 30.8804 80.6719L27.9844 71.7119L25.0884 80.6719C23.5604 85.4319 22.7924 87.8159 21.4404 89.7919C20.2484 91.5199 18.7204 92.9919 16.9524 94.1359C14.9604 95.4239 12.5524 96.1119 7.75237 97.4799L-0.015625 99.6959L7.75237 101.912C12.5604 103.288 14.9684 103.976 16.9524 105.256C18.7192 106.395 20.2443 107.871 21.4404 109.6Z" fill="#F8FAFC"/>
</g>
<defs>
<clipPath id="clip0_46_1985">
<rect width="128" height="128" fill="white"/>
</clipPath>
</defs>
</svg>
