<svg width="128" height="128" viewBox="0 0 128 128" fill="none" xmlns="http://www.w3.org/2000/svg">
<path d="M63.567 27.0018C43.2927 27.1736 27.0561 43.7538 27.2279 64.0281C27.2279 67.8081 27.9152 71.5021 29.032 74.9385C48.1036 74.6807 86.0749 64.2 99.8202 55.8669C96.2121 39.2866 81.2641 26.8299 63.567 27.0018ZM35.0455 59.9045C36.506 45.7297 48.5331 34.6476 63.1375 34.6476C54.203 39.4584 42.6914 48.221 35.0455 59.9045ZM100.422 60.1623C91.7449 66.4336 47.674 78.0311 30.4065 79.3198C36.506 91.5187 49.7358 100.539 64.2543 100.367C84.5286 100.195 100.765 83.6152 100.593 63.3409C100.593 62.2241 100.593 61.1932 100.422 60.1623Z" fill="#F8FAFC"/>
<path fill-rule="evenodd" clip-rule="evenodd" d="M99.2197 45.3862C110.216 44.9567 117.948 46.503 118.893 50.1971C120.869 57.5852 95.2679 70.9009 67.5196 78.3749C39.6854 85.9348 11.078 87.3094 9.10211 80.0072C8.15712 76.3131 13.8271 70.9868 23.7924 65.6605C24.136 66.9491 24.3937 69.2687 24.5656 70.4714C19.3252 73.3063 16.2325 75.7118 16.5761 77.0863C17.5211 80.7803 43.5512 78.5467 66.7464 72.3614C90.0275 66.176 112.106 55.4375 111.075 51.7434C110.731 50.3689 107.123 49.7675 101.539 49.8534C101.196 48.4789 100.68 48.0494 99.2197 45.3862Z" fill="#F8FAFC"/>
</svg>
